<svg width="71" height="15" viewBox="0 0 71 15" fill="none" xmlns="http://www.w3.org/2000/svg">
<path d="M6.36 1.984H1.688V12H0.36V0.799999H6.36V1.984ZM5.0965 8C5.0965 6.64533 5.39517 5.61067 5.9925 4.896C6.6005 4.17067 7.46983 3.808 8.6005 3.808C9.19783 3.808 9.71517 3.90933 10.1525 4.112C10.6005 4.304 10.9685 4.58667 11.2565 4.96C11.5445 5.32267 11.7578 5.76533 11.8965 6.288C12.0352 6.8 12.1045 7.37067 12.1045 8C12.1045 9.35467 11.8005 10.3947 11.1925 11.12C10.5952 11.8347 9.73117 12.192 8.6005 12.192C8.00317 12.192 7.4805 12.096 7.0325 11.904C6.59517 11.7013 6.2325 11.4187 5.9445 11.056C5.6565 10.6827 5.44317 10.24 5.3045 9.728C5.16583 9.20533 5.0965 8.62933 5.0965 8ZM6.4245 8C6.4245 8.40533 6.46183 8.79467 6.5365 9.168C6.62183 9.54133 6.74983 9.86667 6.9205 10.144C7.09117 10.4213 7.31517 10.6453 7.5925 10.816C7.86983 10.9867 8.20583 11.072 8.6005 11.072C10.0512 11.0827 10.7765 10.0587 10.7765 8C10.7765 7.584 10.7338 7.18933 10.6485 6.816C10.5738 6.44267 10.4512 6.11733 10.2805 5.84C10.1098 5.56267 9.88583 5.344 9.6085 5.184C9.33117 5.01333 8.99517 4.928 8.6005 4.928C7.14983 4.91733 6.4245 5.94133 6.4245 8ZM19.5786 11.472C19.2586 11.7067 18.88 11.8827 18.4426 12C18.0053 12.128 17.5466 12.192 17.0666 12.192C16.448 12.192 15.9253 12.096 15.4986 11.904C15.072 11.7013 14.72 11.4187 14.4426 11.056C14.176 10.6827 13.9786 10.24 13.8506 9.728C13.7333 9.20533 13.6746 8.62933 13.6746 8C13.6746 6.64533 13.9733 5.61067 14.5706 4.896C15.168 4.17067 16.0266 3.808 17.1466 3.808C17.6586 3.808 18.0906 3.85067 18.4426 3.936C18.8053 4.01067 19.1306 4.12267 19.4186 4.272L19.0506 5.376C18.8053 5.23733 18.5333 5.13067 18.2346 5.056C17.936 4.97067 17.616 4.928 17.2746 4.928C15.76 4.928 15.0026 5.952 15.0026 8C15.0026 8.40533 15.04 8.79467 15.1146 9.168C15.2 9.53067 15.3333 9.856 15.5146 10.144C15.7066 10.4213 15.952 10.6453 16.2506 10.816C16.56 10.9867 16.9386 11.072 17.3866 11.072C17.7706 11.072 18.112 11.0133 18.4106 10.896C18.72 10.7787 18.9706 10.6453 19.1626 10.496L19.5786 11.472ZM26.1954 5.12H23.6834V12H22.4034V5.12H19.8914V4H26.1954V5.12ZM32.4584 7.264L32.5064 6.272H32.4584L31.8024 7.296L28.2024 12H27.4664V4H28.7464V8.88L28.6984 9.824H28.7624L29.3864 8.832L32.9864 4H33.7384V12H32.4584V7.264ZM41.0968 8.464H37.4808V12H36.2008V4H37.4808V7.344H41.0968V4H42.3768V12H41.0968V8.464ZM49.8334 7.264L49.8814 6.272H49.8334L49.1774 7.296L45.5774 12H44.8414V4H46.1214V8.88L46.0734 9.824H46.1374L46.7614 8.832L50.3614 4H51.1134V12H49.8334V7.264ZM60.7598 14.032H59.8958L59.6558 12H53.5758V4H54.8558V10.88H58.3278V4H59.6078V10.88H60.7598V14.032ZM63.6214 10.88C64.016 10.944 64.3947 10.976 64.7574 10.976C65.4294 10.976 65.8987 10.848 66.1654 10.592C66.432 10.3253 66.5654 9.952 66.5654 9.472C66.5654 9.04533 66.432 8.69333 66.1654 8.416C65.9094 8.13867 65.456 8 64.8054 8C64.624 8 64.4267 8.00533 64.2134 8.016C64 8.02667 63.8027 8.05867 63.6214 8.112V10.88ZM63.6214 7.056C63.8774 7.01333 64.1227 6.98667 64.3574 6.976C64.592 6.95467 64.816 6.944 65.0294 6.944C65.5734 6.944 66.0267 7.008 66.3894 7.136C66.7627 7.25333 67.0614 7.41867 67.2854 7.632C67.5094 7.84533 67.664 8.10133 67.7494 8.4C67.8454 8.688 67.8934 8.99733 67.8934 9.328C67.8934 10.2987 67.6214 11.0027 67.0774 11.44C66.544 11.8773 65.6747 12.096 64.4694 12.096C63.7867 12.096 63.0774 12.064 62.3414 12V4H63.6214V7.056ZM69.1574 4H70.4374V12H69.1574V4Z" fill="white"/>
</svg>
